<?xml version="1.0" standalone="no"?>
<!DOCTYPE svg PUBLIC "-//W3C//DTD SVG 20010904//EN"
 "http://www.w3.org/TR/2001/REC-SVG-20010904/DTD/svg10.dtd">
<svg version="1.0" xmlns="http://www.w3.org/2000/svg"
 width="500.000000pt" height="500.000000pt" viewBox="0 0 500.000000 500.000000"
 preserveAspectRatio="xMidYMid meet">

<g transform="translate(0.000000,500.000000) scale(0.100000,-0.100000)"
fill="#fff" stroke="none">
<path d="M40 2935 l0 -146 143 3 142 3 3 143 3 142 -146 0 -145 0 0 -145z"/>
<path d="M400 2935 l0 -145 430 0 430 0 0 145 0 145 -430 0 -430 0 0 -145z"/>
<path d="M3901 2940 c-79 -38 -147 -105 -347 -345 -83 -99 -157 -185 -165
-191 -8 -6 -50 -14 -95 -18 -149 -12 -260 -54 -307 -118 -17 -23 -18 -31 -8
-55 13 -32 49 -57 98 -68 57 -12 215 47 302 113 l33 25 162 -6 c88 -3 192 -13
231 -22 84 -18 82 -18 67 -3 -18 18 -15 25 12 32 13 3 47 22 76 41 60 40 60
40 60 20 0 -9 11 -27 25 -40 43 -44 111 -30 220 45 l40 28 0 -39 c0 -55 38
-93 84 -85 55 9 202 115 352 254 97 90 69 89 -63 -2 -235 -160 -298 -191 -298
-147 0 28 75 125 173 223 95 97 79 91 277 109 69 6 131 15 139 19 28 15 -49
42 -136 48 -70 4 -83 8 -83 22 0 10 7 23 15 30 8 7 15 21 15 31 0 14 -7 19
-30 19 -24 0 -37 -10 -70 -54 l-40 -53 -83 -7 c-87 -8 -279 -34 -284 -40 -2
-2 9 -12 24 -22 22 -15 51 -20 126 -22 53 -2 97 -6 97 -9 0 -11 -174 -189
-203 -208 l-30 -19 7 24 c52 187 50 220 -16 220 -11 0 -60 -34 -109 -75 -49
-41 -103 -84 -119 -97 -19 -14 -29 -29 -27 -39 3 -12 -15 -28 -67 -56 -85 -48
-104 -55 -111 -43 -10 16 34 91 97 168 33 41 58 75 56 77 -4 4 -38 8 -60 6 -9
0 -29 -13 -44 -28 -41 -44 -122 -170 -129 -203 -5 -23 -11 -29 -23 -26 -51 15
-113 26 -158 26 -28 0 -54 3 -57 6 -3 4 13 30 37 58 24 28 80 103 126 166 46
63 107 143 137 177 81 93 213 174 213 131 0 -20 -150 -159 -230 -214 -39 -27
-67 -50 -62 -52 5 -1 38 7 73 18 157 53 296 184 269 254 -20 55 -93 61 -189
16z m302 -488 c-36 -71 -72 -100 -110 -86 -16 5 -28 15 -28 22 0 7 36 43 80
81 90 77 104 73 58 -17z m-952 -185 c-23 -28 -124 -71 -169 -71 -93 -2 -46 43
72 69 84 18 112 19 97 2z"/>
<path d="M1800 2915 c-161 -42 -315 -127 -359 -199 -12 -19 -21 -50 -21 -74 0
-33 6 -45 31 -66 38 -32 84 -34 141 -5 50 26 134 103 155 142 16 33 16 33 -55
-16 -62 -41 -170 -89 -196 -85 -19 3 -18 7 17 41 149 144 467 235 642 183 63
-19 115 -69 115 -111 0 -105 -297 -360 -462 -399 -39 -9 -36 10 8 55 27 28 34
42 29 58 -3 12 -14 21 -23 21 -16 0 -82 -34 -156 -79 -20 -13 -36 -18 -36 -13
0 15 127 159 267 303 102 104 130 138 121 147 -7 7 -18 12 -26 12 -17 0 -125
-85 -219 -173 -133 -124 -317 -367 -311 -410 6 -44 42 -32 147 47 55 42 103
76 106 76 3 0 -2 -11 -10 -24 -23 -34 -16 -85 15 -107 22 -17 33 -18 90 -9 97
16 194 65 317 162 9 7 11 1 6 -26 -7 -45 16 -82 56 -91 42 -9 105 21 163 77
32 31 58 48 85 52 48 9 107 43 183 107 82 68 80 94 -2 36 -66 -47 -167 -101
-174 -94 -3 2 7 28 21 58 27 59 32 101 13 117 -27 21 -95 12 -151 -22 l-55
-33 26 56 c43 95 31 163 -45 236 -79 77 -266 98 -453 50z m618 -377 c-24 -45
-58 -63 -58 -32 0 21 48 74 68 74 10 0 8 -11 -10 -42z m-78 -106 c0 -19 -102
-102 -124 -102 -3 0 -6 10 -6 23 0 26 31 80 68 119 l25 28 19 -30 c10 -17 18
-34 18 -38z"/>
<path d="M4035 2757 c-43 -43 -46 -67 -8 -67 37 0 95 46 91 73 -5 36 -44 33
-83 -6z"/>
<path d="M40 2575 l0 -146 143 3 142 3 3 143 3 142 -146 0 -145 0 0 -145z"/>
<path d="M400 2575 l0 -145 430 0 430 0 0 145 0 145 -430 0 -430 0 0 -145z"/>
<path d="M2918 2636 c-130 -47 -318 -228 -318 -307 0 -81 77 -67 189 36 l44
40 -7 -43 c-7 -47 6 -82 30 -82 21 0 78 38 190 127 130 105 201 169 192 178
-3 4 -55 -27 -115 -68 -150 -104 -213 -140 -213 -122 0 7 28 48 63 91 98 121
94 114 72 130 -11 8 -24 13 -30 11 -5 -2 -16 2 -23 10 -16 16 -27 16 -74 -1z
m17 -92 c-161 -142 -255 -204 -206 -136 52 72 183 172 225 172 18 -1 14 -7
-19 -36z"/>
<path d="M40 2215 l0 -145 145 0 145 0 0 145 0 145 -145 0 -145 0 0 -145z"/>
<path d="M400 2215 l0 -145 430 0 430 0 0 145 0 145 -430 0 -430 0 0 -145z"/>
</g>
</svg>
